<svg width="49" height="41" viewBox="0 0 49 41" fill="none" xmlns="http://www.w3.org/2000/svg">
<path d="M45.9949 15.035H44.502C42.8654 15.035 41.5352 16.3461 41.4969 17.973H35.7643C33.9459 15.4943 31.4002 13.7238 28.5291 12.8529V6.56523H33.9363C35.7451 6.56523 37.2189 5.09141 37.2189 3.28262C37.2189 1.47383 35.7451 0 33.9363 0H15.0637C13.2549 0 11.7811 1.47383 11.7811 3.28262C11.7811 5.09141 13.2549 6.56523 15.0637 6.56523H20.4709V12.8529C17.5998 13.7143 15.0637 15.4943 13.2453 17.973H7.50313C7.46484 16.3461 6.13457 15.035 4.49805 15.035H3.00508C1.34941 15.035 0 16.3844 0 18.04V34.4148C0 36.0705 1.34941 37.4199 3.00508 37.4199H4.49805C6.13457 37.4199 7.46484 36.1088 7.50313 34.4818H13.2549C15.8676 38.0707 20.0307 40.1953 24.5 40.1953C28.9789 40.1953 33.142 38.0707 35.7547 34.4818H41.4969C41.5352 36.1088 42.8654 37.4199 44.502 37.4199H45.9949C47.6506 37.4199 49 36.0705 49 34.4148V18.04C49 16.3844 47.6506 15.035 45.9949 15.035ZM5.50293 34.4148C5.50293 34.9699 5.05312 35.4197 4.49805 35.4197H3.00508C2.45 35.4197 2.0002 34.9699 2.0002 34.4148V18.04C2.0002 17.485 2.45 17.0352 3.00508 17.0352H4.49805C5.05312 17.0352 5.50293 17.485 5.50293 18.04V34.4148ZM13.7717 3.29219C13.7717 2.58398 14.3459 2.00977 15.0541 2.00977H33.9363C34.6445 2.00977 35.2188 2.58398 35.2188 3.29219C35.2188 4.00039 34.6445 4.57461 33.9363 4.57461C28.2898 4.57461 22.452 4.57461 15.0541 4.57461C14.3555 4.57461 13.7717 4.00039 13.7717 3.29219ZM22.4711 6.5748H26.5385V12.4223C25.8686 12.3266 25.1891 12.2691 24.5096 12.2691C23.8301 12.2691 23.141 12.3266 22.4807 12.4223L22.4711 6.5748ZM35.2379 32.4816C34.9029 32.4816 34.5967 32.6443 34.4053 32.9219C32.1945 36.2236 28.4908 38.1855 24.5 38.1855C20.5187 38.1855 16.815 36.2141 14.6043 32.9123C14.4225 32.6348 14.1066 32.4721 13.7717 32.4721H7.50313V19.9828H13.7621C14.0971 19.9828 14.4033 19.8201 14.5947 19.5426C16.8246 16.2408 20.5379 14.2693 24.5096 14.2693C28.4908 14.2693 32.1945 16.2408 34.434 19.5426C34.6158 19.8201 34.9316 19.9828 35.2666 19.9828H41.516V32.4816H35.2379ZM46.9998 34.4148C46.9998 34.9699 46.55 35.4197 45.9949 35.4197H44.502C43.9469 35.4197 43.4971 34.9699 43.4971 34.4148V18.04C43.4971 17.485 43.9469 17.0352 44.502 17.0352H45.9949C46.55 17.0352 46.9998 17.485 46.9998 18.04V34.4148Z" fill="white"/>
<path d="M24.5004 19.1602C20.6053 19.1602 17.4375 22.3279 17.4375 26.223C17.4375 30.1182 20.6053 33.2859 24.5004 33.2859C28.3955 33.2859 31.5633 30.1182 31.5633 26.223C31.5633 22.3279 28.3955 19.1602 24.5004 19.1602ZM24.5004 31.2953C21.7059 31.2953 19.4377 29.0176 19.4377 26.2326C19.4377 23.4381 21.7154 21.1699 24.5004 21.1699C27.2854 21.1699 29.5631 23.4477 29.5631 26.2326C29.5631 29.0176 27.2949 31.2953 24.5004 31.2953Z" fill="white"/>
</svg>
