<svg width="94" height="23" viewBox="0 0 94 23" fill="none" xmlns="http://www.w3.org/2000/svg">
    <path d="M5.61911 11.3036V22.6402H0V0.359863H5.05699L13.3851 12.9425V0.359863H19.0042V22.6402H13.3851L5.61911 11.3036Z" fill="#FD6A3C"/>
    <path d="M37.6075 22.0829C36.1866 22.673 34.5666 23 32.8803 23C26.3029 23 21.3123 18.0196 21.3123 11.499C21.3123 4.97836 26.3049 0 32.8803 0C34.5666 0 36.1866 0.326956 37.6075 0.917121V7.30612C36.5164 6.2903 34.8653 5.57059 32.8803 5.57059C29.576 5.57059 27.0973 8.2582 27.0973 11.501C27.0973 14.7439 29.576 17.4315 32.8803 17.4315C34.8633 17.4315 36.5828 16.7097 37.6075 15.7597V22.0829Z" fill="#FD6A3C"/>
    <path d="M55.4603 22.0829C54.0394 22.673 52.4194 23 50.7331 23C44.1557 23 39.165 18.0196 39.165 11.499C39.165 4.97836 44.1577 0 50.7331 0C52.4194 0 54.0394 0.326956 55.4603 0.917121V7.30612C54.3692 6.2903 52.7181 5.57059 50.7331 5.57059C47.4288 5.57059 44.9501 8.2582 44.9501 11.501C44.9501 14.7439 47.4288 17.4315 50.7331 17.4315C52.716 17.4315 54.4356 16.7097 55.4603 15.7597V22.0829Z" fill="#FD6A3C"/>
    <path d="M71.69 0.415161H58.5352V5.78834H71.69V0.415161Z" fill="#FD6A3C"/>
    <path d="M94.0002 22.6402L86.9768 12.5806C89.0262 11.9246 90.7768 10.1233 90.7768 6.97712C90.7768 2.71847 87.6696 0.359863 83.1747 0.359863H74.8135V22.6402H80.4326V14.8426H80.9947C81.2996 14.8426 81.6149 14.8385 81.9302 14.8302L87.3751 22.6422H94.0002V22.6402ZM80.4326 9.46939V5.73304H83.1436C84.2347 5.73304 84.9938 6.38901 84.9938 7.60019C84.9938 8.81136 84.2326 9.46733 83.1436 9.46733H80.4326V9.46939Z" fill="#FD6A3C"/>
    <path d="M71.4361 8.61243H58.2812V13.9856H71.4361V8.61243Z" fill="#FD6A3C"/>
    <path d="M71.69 17.2113H58.5352V22.5845H71.69V17.2113Z" fill="#FD6A3C"/>
</svg>
