<svg width="240" height="32" viewBox="0 0 240 32" fill="none" xmlns="http://www.w3.org/2000/svg">
    <g clip-path="url(#clip0_767_1936)">
        <path d="M7.99448 15.7269V31.9008H0V0.115967H7.2L19.051 17.4983V0.115967H27.0455V31.9008H19.051L7.99448 15.7269Z" fill="#FD6A3C"/>
        <path d="M53.8933 30.6591C51.9402 31.4703 49.7057 31.9338 47.3719 31.9338C38.3015 31.9338 31.416 25.0471 31.416 16.0414C31.416 7.03575 38.3015 0.149048 47.3719 0.149048C49.6891 0.149048 51.9236 0.596022 53.8933 1.42375V10.2473C52.3871 8.8402 50.1029 7.84693 47.3719 7.84693C42.8202 7.84693 39.3939 11.5552 39.3939 16.0414C39.3939 20.5277 42.8036 24.236 47.3719 24.236C50.1029 24.236 52.4698 23.2427 53.8933 21.9349V30.6757V30.6591Z" fill="#FD6A3C"/>
        <path d="M78.5048 30.6591C76.5517 31.4703 74.3172 31.9338 71.9835 31.9338C62.9131 31.9338 56.0276 25.0471 56.0276 16.0414C56.0276 7.03575 62.9131 0.149048 71.9835 0.149048C74.3007 0.149048 76.5352 0.596022 78.5048 1.42375V10.2473C76.9986 8.8402 74.7145 7.84693 71.9835 7.84693C67.4317 7.84693 64.0055 11.5552 64.0055 16.0414C64.0055 20.5277 67.4152 24.236 71.9835 24.236C74.7145 24.236 77.0814 23.2427 78.5048 21.9349V30.6757V30.6591Z" fill="#FD6A3C"/>
        <path d="M101.71 0.115967H82.8909V7.81385H101.71V0.115967Z" fill="#FD6A3C"/>
        <path d="M114.157 13.128V7.79746H117.997C119.537 7.79746 120.629 8.74107 120.629 10.4627C120.629 12.1844 119.553 13.128 117.997 13.128H114.157ZM133.407 31.934L123.443 17.5812C126.356 16.6376 128.839 14.0716 128.839 9.58536C128.839 3.50982 124.436 0.13269 118.064 0.13269H106.196V31.934H114.174V20.8094H114.968C115.399 20.8094 115.846 20.8094 116.293 20.7928L124.022 31.9506H133.424L133.407 31.934Z" fill="#FD6A3C"/>
        <path d="M101.71 12.1511H82.8909V19.849H101.71V12.1511Z" fill="#FD6A3C"/>
        <path d="M101.71 24.2029H82.8909V31.9008H101.71V24.2029Z" fill="#FD6A3C"/>
        <path d="M150.935 7.00292L147.161 2.21864V7.00292H146.019V0.116211H146.996L150.77 4.90048V0.116211H151.895V7.00292H150.935Z" fill="white"/>
        <path d="M155.536 5.69506V5.24809C155.337 5.0991 155.089 5.03288 154.758 5.03288C154.394 5.03288 154.046 5.21498 154.046 5.57918C154.046 5.91027 154.328 6.10893 154.675 6.10893C155.139 6.10893 155.387 5.91027 155.536 5.71162M153.268 2.89734C153.649 2.66557 154.245 2.46692 154.824 2.46692C156.132 2.46692 156.595 3.1291 156.595 4.30448V7.00287H155.619V6.48968C155.387 6.82077 154.907 7.06909 154.311 7.06909C153.5 7.06909 152.921 6.57245 152.921 5.71162C152.921 4.7349 153.632 4.27137 154.526 4.27137C154.923 4.27137 155.304 4.4038 155.519 4.5528C155.552 3.80784 155.354 3.41053 154.692 3.41053C154.179 3.41053 153.864 3.57608 153.533 3.70851L153.252 2.88078L153.268 2.89734Z" fill="white"/>
        <path d="M157.39 1.34119H158.516V2.56623H159.939V3.62572H158.516V5.24807C158.516 5.72815 158.681 6.04269 159.046 6.04269C159.343 6.04269 159.559 5.91025 159.724 5.79437L160.072 6.67176C159.807 6.88697 159.343 7.10218 158.764 7.10218C157.771 7.10218 157.39 6.45655 157.39 5.31429V1.34119Z" fill="white"/>
        <path d="M160.916 2.56588H162.042V7.0025H160.916V2.56588ZM161.512 0.314453C161.843 0.314453 162.158 0.579326 162.158 0.976636C162.158 1.42361 161.827 1.68848 161.512 1.68848C161.131 1.68848 160.8 1.44016 160.8 0.976636C160.8 0.579326 161.131 0.314453 161.512 0.314453Z" fill="white"/>
        <path d="M165.335 6.05938C166.03 6.05938 166.544 5.56275 166.544 4.78468C166.544 4.00662 166.03 3.52653 165.335 3.52653C164.64 3.52653 164.144 4.02317 164.144 4.78468C164.144 5.54619 164.657 6.05938 165.335 6.05938ZM165.335 2.46704C166.792 2.46704 167.735 3.46032 167.735 4.78468C167.735 6.10905 166.792 7.10232 165.335 7.10232C163.879 7.10232 162.935 6.10905 162.935 4.78468C162.935 3.46032 163.879 2.46704 165.335 2.46704Z" fill="white"/>
        <path d="M168.464 2.56642H169.589V3.01339C169.854 2.73196 170.318 2.48364 170.847 2.48364C171.923 2.48364 172.668 3.01339 172.668 4.38742V6.98649H171.542V4.58607C171.542 3.87423 171.178 3.54314 170.549 3.54314C170.169 3.54314 169.854 3.70868 169.589 3.97355V7.00304H168.464V2.56642Z" fill="white"/>
        <path d="M175.878 5.69494V5.24797C175.68 5.09897 175.431 5.03276 175.1 5.03276C174.736 5.03276 174.389 5.21486 174.389 5.57906C174.389 5.91015 174.67 6.1088 175.018 6.1088C175.481 6.1088 175.729 5.91015 175.878 5.71149M173.611 2.89722C173.991 2.66545 174.587 2.4668 175.167 2.4668C176.474 2.4668 176.938 3.12898 176.938 4.30435V7.00275H175.961V6.48956C175.729 6.82065 175.249 7.06897 174.654 7.06897C173.842 7.06897 173.263 6.57233 173.263 5.71149C173.263 4.73477 173.975 4.27125 174.869 4.27125C175.266 4.27125 175.647 4.40368 175.862 4.55267C175.895 3.80772 175.696 3.41041 175.034 3.41041C174.521 3.41041 174.207 3.57595 173.876 3.70839L173.594 2.88066L173.611 2.89722Z" fill="white"/>
        <path d="M177.831 0.115967H178.957V5.3141C178.957 5.81074 179.073 6.02595 179.338 6.02595C179.52 6.02595 179.669 5.94318 179.801 5.84385L180.033 6.70469C179.785 6.90334 179.387 7.08544 178.858 7.08544C178.179 7.08544 177.815 6.67158 177.815 5.76108V0.115967H177.831Z" fill="white"/>
        <path d="M187.862 6.32417C187.432 6.7877 186.555 7.10223 185.661 7.10223C183.559 7.10223 182.119 5.69509 182.119 3.543C182.119 1.55645 183.36 -0.0162354 185.628 -0.0162354C186.522 -0.0162354 187.266 0.265192 187.713 0.679057L187.167 1.573C186.753 1.29158 186.306 1.10948 185.611 1.10948C184.337 1.10948 183.377 2.03653 183.377 3.52644C183.377 5.01636 184.353 5.94341 185.744 5.94341C186.323 5.94341 186.902 5.76131 187.366 5.39711L187.829 6.30761L187.862 6.32417Z" fill="white"/>
        <path d="M189.037 4.3707H191.205C191.205 3.82439 190.841 3.41053 190.196 3.41053C189.55 3.41053 189.153 3.79129 189.037 4.3707ZM191.967 6.5559C191.52 6.93666 190.891 7.1022 190.278 7.1022C188.855 7.1022 187.911 6.17514 187.911 4.78456C187.911 3.4933 188.789 2.46692 190.245 2.46692C191.387 2.46692 192.331 3.27809 192.331 4.51969C192.331 4.80111 192.314 4.96666 192.264 5.13221H189.07C189.169 5.79439 189.699 6.15859 190.394 6.15859C190.94 6.15859 191.387 5.95993 191.636 5.76128L191.967 6.5559Z" fill="white"/>
        <path d="M192.993 2.56605H194.118V3.01302C194.383 2.7316 194.846 2.48328 195.376 2.48328C196.452 2.48328 197.197 3.01302 197.197 4.38705V6.98612H196.071V4.58571C196.071 3.87386 195.707 3.54277 195.078 3.54277C194.698 3.54277 194.383 3.70832 194.118 3.97319V7.00268H192.993V2.56605Z" fill="white"/>
        <path d="M197.976 1.34143H199.102V2.56647H200.525V3.62596H199.102V5.24831C199.102 5.72839 199.251 6.04293 199.631 6.04293C199.929 6.04293 200.144 5.91049 200.31 5.79461L200.657 6.67201C200.393 6.88722 199.929 7.10242 199.35 7.10242C198.357 7.10242 197.976 6.4568 197.976 5.31453V1.34143Z" fill="white"/>
        <path d="M202.031 4.37082H204.199C204.199 3.82452 203.835 3.41065 203.189 3.41065C202.544 3.41065 202.147 3.79141 202.031 4.37082ZM204.96 6.55602C204.514 6.93678 203.885 7.10232 203.272 7.10232C201.849 7.10232 200.905 6.17527 200.905 4.78468C200.905 3.49343 201.783 2.46704 203.239 2.46704C204.381 2.46704 205.325 3.27822 205.325 4.51981C205.325 4.80124 205.308 4.96678 205.258 5.13233H202.064C202.163 5.79451 202.693 6.15871 203.388 6.15871C203.934 6.15871 204.381 5.96006 204.629 5.7614L204.96 6.55602Z" fill="white"/>
        <path d="M205.97 2.56642H207.095V2.99683C207.294 2.71541 207.575 2.48364 208.105 2.48364C208.469 2.48364 208.651 2.54986 208.784 2.64919L208.386 3.70868C208.171 3.57624 208.055 3.54314 207.824 3.54314C207.426 3.54314 207.228 3.75835 207.095 4.02322V7.00304H205.97V2.56642Z" fill="white"/>
        <path d="M211.035 1.85424C211.035 0.612642 211.631 0.00012207 212.607 0.00012207C213.137 0.00012207 213.617 0.182222 213.849 0.413987L213.468 1.27482C213.319 1.12583 213.071 1.05962 212.823 1.05962C212.442 1.05962 212.177 1.32449 212.177 1.93701V2.56608H213.369V3.62558H212.177V6.98616H211.051V1.85424H211.035Z" fill="white"/>
        <path d="M215.999 6.05926C216.694 6.05926 217.207 5.56263 217.207 4.78456C217.207 4.00649 216.694 3.52641 215.999 3.52641C215.303 3.52641 214.807 4.02305 214.807 4.78456C214.807 5.54607 215.32 6.05926 215.999 6.05926ZM215.999 2.46692C217.455 2.46692 218.399 3.46019 218.399 4.78456C218.399 6.10893 217.455 7.1022 215.999 7.1022C214.542 7.1022 213.599 6.10893 213.599 4.78456C213.599 3.46019 214.542 2.46692 215.999 2.46692Z" fill="white"/>
        <path d="M219.112 2.56642H220.237V2.99683C220.436 2.71541 220.717 2.48364 221.247 2.48364C221.611 2.48364 221.793 2.54986 221.926 2.64919L221.528 3.70868C221.313 3.57624 221.197 3.54314 220.966 3.54314C220.568 3.54314 220.37 3.75835 220.237 4.02322V7.00304H219.112V2.56642Z" fill="white"/>
        <path d="M151.812 18.8061C151.382 19.2696 150.504 19.5842 149.611 19.5842C147.509 19.5842 146.069 18.177 146.069 16.0249C146.069 14.0384 147.31 12.4657 149.578 12.4657C150.471 12.4657 151.216 12.7471 151.663 13.161L151.117 14.0549C150.703 13.7735 150.256 13.5914 149.561 13.5914C148.287 13.5914 147.327 14.5185 147.327 16.0084C147.327 17.4983 148.303 18.4253 149.693 18.4253C150.273 18.4253 150.852 18.2432 151.315 17.879L151.779 18.7895L151.812 18.8061Z" fill="white"/>
        <path d="M154.263 18.5247C154.958 18.5247 155.471 18.0281 155.471 17.25C155.471 16.4719 154.958 15.9919 154.263 15.9919C153.568 15.9919 153.071 16.4885 153.071 17.25C153.071 18.0115 153.584 18.5247 154.263 18.5247ZM154.263 14.9324C155.72 14.9324 156.663 15.9256 156.663 17.25C156.663 18.5744 155.72 19.5677 154.263 19.5677C152.806 19.5677 151.863 18.5744 151.863 17.25C151.863 15.9256 152.806 14.9324 154.263 14.9324Z" fill="white"/>
        <path d="M157.374 15.0482H158.499V15.4952C158.764 15.2138 159.227 14.9655 159.757 14.9655C160.833 14.9655 161.578 15.4952 161.578 16.8692V19.4683H160.452V17.0679C160.452 16.356 160.088 16.0249 159.459 16.0249C159.078 16.0249 158.764 16.1905 158.499 16.4554V19.4849H157.374V15.0482Z" fill="white"/>
        <path d="M162.322 16.2897C162.322 15.4288 163.033 14.9487 163.944 14.9487C164.804 14.9487 165.351 15.2467 165.616 15.5116L165.202 16.3228C164.937 16.1241 164.473 15.8923 164.01 15.8923C163.662 15.8923 163.464 16.0744 163.464 16.2731C163.464 17.0181 165.847 16.6042 165.847 18.1769C165.847 19.0543 165.136 19.6006 164.06 19.6006C163.249 19.6006 162.421 19.1536 162.222 18.8391L162.769 18.0941C163.033 18.3755 163.696 18.6404 164.142 18.6404C164.473 18.6404 164.722 18.508 164.722 18.2265C164.722 17.5147 162.338 17.8954 162.338 16.2897" fill="white"/>
        <path d="M166.461 13.8066H167.587V15.0317H169.01V16.0912H167.587V17.7135C167.587 18.1936 167.752 18.5081 168.117 18.5081C168.415 18.5081 168.63 18.3757 168.795 18.2598L169.143 19.1372C168.878 19.3524 168.415 19.5676 167.835 19.5676C166.842 19.5676 166.461 18.922 166.461 17.7797V13.8066Z" fill="white"/>
        <path d="M169.839 15.0487H170.964V15.4791C171.163 15.1977 171.444 14.9659 171.974 14.9659C172.338 14.9659 172.52 15.0322 172.653 15.1315L172.255 16.191C172.04 16.0585 171.924 16.0254 171.693 16.0254C171.295 16.0254 171.097 16.2406 170.964 16.5055V19.4853H169.839V15.0487Z" fill="white"/>
        <path d="M177.038 19.4683H175.912V18.922C175.648 19.2531 175.184 19.5676 174.506 19.5676C173.645 19.5676 172.95 19.0047 172.95 17.73V15.0151H174.075V17.4817C174.075 18.0777 174.307 18.4916 174.919 18.4916C175.3 18.4916 175.648 18.2929 175.912 17.9452V14.9985H177.038V19.4352V19.4683Z" fill="white"/>
        <path d="M181.902 18.8065C181.522 19.3031 180.86 19.568 180.148 19.568C178.708 19.568 177.748 18.641 177.748 17.2504C177.748 15.9591 178.691 14.9327 180.032 14.9327C180.76 14.9327 181.389 15.1148 181.803 15.5287L181.273 16.4227C180.942 16.0916 180.578 15.9922 180.181 15.9922C179.552 15.9922 178.956 16.4723 178.956 17.2504C178.956 18.0284 179.568 18.5251 180.231 18.5251C180.711 18.5251 181.091 18.2933 181.373 17.9788L181.902 18.8065Z" fill="white"/>
        <path d="M182.434 13.8068H183.559V15.0318H184.983V16.0913H183.559V17.7136C183.559 18.1937 183.708 18.5083 184.089 18.5083C184.387 18.5083 184.602 18.3758 184.768 18.2599L185.115 19.1373C184.85 19.3525 184.387 19.5678 183.808 19.5678C182.815 19.5678 182.434 18.9221 182.434 17.7799V13.8068Z" fill="white"/>
        <path d="M185.975 15.0484H187.101V19.485H185.975V15.0484ZM186.571 12.797C186.902 12.797 187.216 13.0619 187.216 13.4592C187.216 13.9062 186.885 14.171 186.571 14.171C186.19 14.171 185.859 13.9227 185.859 13.4592C185.859 13.0619 186.19 12.797 186.571 12.797Z" fill="white"/>
        <path d="M190.394 18.5246C191.089 18.5246 191.602 18.028 191.602 17.2499C191.602 16.4718 191.089 15.9917 190.394 15.9917C189.699 15.9917 189.202 16.4884 189.202 17.2499C189.202 18.0114 189.715 18.5246 190.394 18.5246ZM190.394 14.9323C191.85 14.9323 192.794 15.9255 192.794 17.2499C192.794 18.5743 191.85 19.5675 190.394 19.5675C188.937 19.5675 187.994 18.5743 187.994 17.2499C187.994 15.9255 188.937 14.9323 190.394 14.9323Z" fill="white"/>
        <path d="M193.506 15.0483H194.632V15.4953C194.896 15.2139 195.36 14.9656 195.89 14.9656C196.965 14.9656 197.71 15.4953 197.71 16.8694V19.4684H196.585V17.068C196.585 16.3562 196.221 16.0251 195.592 16.0251C195.211 16.0251 194.896 16.1906 194.632 16.4555V19.485H193.506V15.0483Z" fill="white"/>
        <path d="M200.806 12.5319H204.779V13.6576H202.015V15.3627H204.481V16.505H202.015V18.2929H204.878V19.4186H200.806V12.5319Z" fill="white"/>
        <path d="M208.933 17.9954V16.2075C208.652 16.0254 208.37 15.9426 208.056 15.9426C207.394 15.9426 206.798 16.3896 206.798 17.2173C206.798 18.045 207.311 18.4423 207.907 18.4423C208.321 18.4423 208.685 18.2437 208.933 17.9954ZM208.933 18.9555C208.635 19.2701 208.238 19.5018 207.659 19.5018C206.401 19.5018 205.573 18.6079 205.573 17.2504C205.573 15.8929 206.566 14.8831 207.99 14.8831C208.387 14.8831 208.668 14.9493 208.917 15.0983V12.5323H210.042V19.4191H208.917V18.9555H208.933Z" fill="white"/>
        <path d="M215.041 19.4188H213.916V18.8725C213.651 19.2036 213.188 19.5182 212.509 19.5182C211.648 19.5182 210.953 18.9553 210.953 17.6806V14.9657H212.079V17.4323C212.079 18.0282 212.31 18.4421 212.923 18.4421C213.303 18.4421 213.651 18.2435 213.916 17.8958V14.9491H215.041V19.3857V19.4188Z" fill="white"/>
        <path d="M219.906 18.7563C219.525 19.253 218.863 19.5179 218.151 19.5179C216.711 19.5179 215.751 18.5908 215.751 17.2002C215.751 15.909 216.695 14.8826 218.036 14.8826C218.764 14.8826 219.393 15.0647 219.807 15.4785L219.277 16.3725C218.946 16.0414 218.582 15.9421 218.185 15.9421C217.556 15.9421 216.96 16.4221 216.96 17.2002C216.96 17.9783 217.572 18.4749 218.234 18.4749C218.714 18.4749 219.095 18.2431 219.376 17.9286L219.906 18.7563Z" fill="white"/>
        <path d="M222.87 18.1108V17.6639C222.671 17.5149 222.423 17.4487 222.092 17.4487C221.728 17.4487 221.38 17.6308 221.38 17.995C221.38 18.326 221.662 18.5247 222.009 18.5247C222.473 18.5247 222.721 18.326 222.87 18.1274M220.602 15.3131C220.983 15.0813 221.579 14.8827 222.158 14.8827C223.466 14.8827 223.929 15.5449 223.929 16.7202V19.4186H222.953V18.9055C222.721 19.2365 222.241 19.4849 221.645 19.4849C220.834 19.4849 220.255 18.9882 220.255 18.1274C220.255 17.1507 220.967 16.6871 221.86 16.6871C222.258 16.6871 222.638 16.8196 222.853 16.9686C222.887 16.2236 222.688 15.8263 222.026 15.8263C221.513 15.8263 221.198 15.9918 220.867 16.1243L220.586 15.2966L220.602 15.3131Z" fill="white"/>
        <path d="M224.721 13.7571H225.847V14.9821H227.27V16.0416H225.847V17.664C225.847 18.144 225.996 18.4586 226.376 18.4586C226.674 18.4586 226.889 18.3261 227.055 18.2103L227.403 19.0877C227.138 19.3029 226.674 19.5181 226.095 19.5181C225.102 19.5181 224.721 18.8724 224.721 17.7302V13.7571Z" fill="white"/>
        <path d="M228.248 14.982H229.374V19.4186H228.248V14.982ZM228.844 12.7306C229.175 12.7306 229.49 12.9955 229.49 13.3928C229.49 13.8397 229.159 14.1046 228.844 14.1046C228.463 14.1046 228.132 13.8563 228.132 13.3928C228.132 12.9955 228.463 12.7306 228.844 12.7306Z" fill="white"/>
        <path d="M232.668 18.4753C233.363 18.4753 233.876 17.9786 233.876 17.2006C233.876 16.4225 233.363 15.9424 232.668 15.9424C231.973 15.9424 231.476 16.4391 231.476 17.2006C231.476 17.9621 231.989 18.4753 232.668 18.4753ZM232.668 14.8829C234.125 14.8829 235.068 15.8762 235.068 17.2006C235.068 18.5249 234.125 19.5182 232.668 19.5182C231.212 19.5182 230.268 18.5249 230.268 17.2006C230.268 15.8762 231.212 14.8829 232.668 14.8829Z" fill="white"/>
        <path d="M235.796 14.9823H236.921V15.4293C237.186 15.1479 237.649 14.8995 238.179 14.8995C239.255 14.8995 240 15.4293 240 16.8033V19.4024H238.874V17.002C238.874 16.2901 238.51 15.959 237.881 15.959C237.5 15.959 237.186 16.1246 236.921 16.3894V19.4189H235.796V14.9823Z" fill="white"/>
        <path d="M148.684 30.593V30.146C148.485 29.997 148.237 29.9308 147.906 29.9308C147.542 29.9308 147.194 30.1129 147.194 30.4771C147.194 30.8082 147.475 31.0069 147.823 31.0069C148.287 31.0069 148.535 30.8082 148.684 30.6096M146.416 27.7953C146.797 27.5635 147.393 27.3649 147.972 27.3649C149.28 27.3649 149.743 28.027 149.743 29.2024V31.9008H148.767V31.3876C148.535 31.7187 148.055 31.967 147.459 31.967C146.648 31.967 146.069 31.4704 146.069 30.6096C146.069 29.6328 146.78 29.1693 147.674 29.1693C148.071 29.1693 148.452 29.3018 148.667 29.4507C148.7 28.7058 148.502 28.3085 147.84 28.3085C147.327 28.3085 147.012 28.474 146.681 28.6065L146.4 27.7787L146.416 27.7953Z" fill="white"/>
        <path d="M150.637 27.4641H151.762V27.9111C152.027 27.6297 152.491 27.3813 153.02 27.3813C154.096 27.3813 154.841 27.9111 154.841 29.2851V31.8842H153.716V29.4838C153.716 28.7719 153.351 28.4408 152.722 28.4408C152.342 28.4408 152.027 28.6064 151.762 28.8713V31.9007H150.637V27.4641Z" fill="white"/>
        <path d="M158.797 30.4773V28.6894C158.516 28.5073 158.235 28.4245 157.92 28.4245C157.258 28.4245 156.662 28.8715 156.662 29.6992C156.662 30.527 157.175 30.9243 157.771 30.9243C158.185 30.9243 158.549 30.7256 158.797 30.4773ZM158.797 31.4375C158.5 31.752 158.102 31.9838 157.523 31.9838C156.265 31.9838 155.438 31.0898 155.438 29.7323C155.438 28.3749 156.431 27.365 157.854 27.365C158.251 27.365 158.533 27.4313 158.781 27.5802V25.0143H159.906V31.901H158.781V31.4375H158.797Z" fill="white"/>
        <path d="M164.259 26.1397V28.1925H165.036C165.732 28.1925 166.361 27.8448 166.361 27.133C166.361 26.5867 166.063 26.1231 165.086 26.1231C164.854 26.1231 164.59 26.1231 164.259 26.1397ZM163.05 31.9007V25.014C163.431 25.014 164.937 24.9974 165.136 24.9974C167.006 24.9974 167.635 25.941 167.635 27.133C167.635 28.3249 166.874 28.9043 166.311 29.103L168.463 31.9173H167.006L165.119 29.3347H164.275V31.9173H163.067L163.05 31.9007Z" fill="white"/>
        <path d="M169.375 29.2686H171.543C171.543 28.7223 171.179 28.3085 170.533 28.3085C169.888 28.3085 169.49 28.6892 169.375 29.2686ZM172.304 31.4538C171.857 31.8346 171.228 32.0001 170.616 32.0001C169.192 32.0001 168.249 31.0731 168.249 29.6825C168.249 28.3913 169.126 27.3649 170.583 27.3649C171.725 27.3649 172.668 28.176 172.668 29.4176C172.668 29.6991 172.652 29.8646 172.602 30.0302H169.408C169.507 30.6923 170.037 31.0565 170.732 31.0565C171.278 31.0565 171.725 30.8579 171.973 30.6592L172.304 31.4538Z" fill="white"/>
        <path d="M173.164 28.7062C173.164 27.8453 173.876 27.3652 174.786 27.3652C175.647 27.3652 176.193 27.6632 176.458 27.9281L176.044 28.7393C175.779 28.5406 175.316 28.3088 174.852 28.3088C174.505 28.3088 174.306 28.4909 174.306 28.6896C174.306 29.4346 176.69 29.0207 176.69 30.5934C176.69 31.4708 175.978 32.0171 174.902 32.0171C174.091 32.0171 173.263 31.5701 173.065 31.2556L173.611 30.5106C173.876 30.792 174.538 31.0569 174.985 31.0569C175.316 31.0569 175.564 30.9245 175.564 30.643C175.564 29.9312 173.181 30.3119 173.181 28.7062" fill="white"/>
        <path d="M178.261 29.2685H180.43C180.43 28.7222 180.065 28.3084 179.42 28.3084C178.774 28.3084 178.377 28.6891 178.261 29.2685ZM181.191 31.4537C180.744 31.8345 180.115 32 179.503 32C178.079 32 177.136 31.073 177.136 29.6824C177.136 28.3911 178.013 27.3647 179.47 27.3647C180.612 27.3647 181.555 28.1759 181.555 29.4175C181.555 29.6989 181.539 29.8645 181.489 30.03H178.294C178.394 30.6922 178.923 31.0564 179.619 31.0564C180.165 31.0564 180.612 30.8578 180.86 30.6591L181.191 31.4537Z" fill="white"/>
        <path d="M184.535 30.5931V30.1462C184.336 29.9972 184.088 29.9309 183.757 29.9309C183.393 29.9309 183.045 30.113 183.045 30.4772C183.045 30.8083 183.326 31.007 183.674 31.007C184.137 31.007 184.386 30.8083 184.535 30.6097M182.267 27.7954C182.648 27.5636 183.244 27.365 183.823 27.365C185.13 27.365 185.594 28.0272 185.594 29.2025V31.9009H184.617V31.3878C184.386 31.7188 183.906 31.9672 183.31 31.9672C182.499 31.9672 181.919 31.4705 181.919 30.6097C181.919 29.633 182.631 29.1694 183.525 29.1694C183.922 29.1694 184.303 29.3019 184.518 29.4509C184.551 28.7059 184.353 28.3086 183.69 28.3086C183.177 28.3086 182.863 28.4741 182.532 28.6066L182.25 27.7789L182.267 27.7954Z" fill="white"/>
        <path d="M186.489 27.4641H187.615V27.8945C187.813 27.6131 188.095 27.3813 188.624 27.3813C188.989 27.3813 189.171 27.4476 189.303 27.5469L188.906 28.6064C188.691 28.4739 188.575 28.4408 188.343 28.4408C187.946 28.4408 187.747 28.656 187.615 28.9209V31.9007H186.489V27.4641Z" fill="white"/>
        <path d="M193.573 31.239C193.192 31.7356 192.53 32.0005 191.818 32.0005C190.378 32.0005 189.418 31.0735 189.418 29.6829C189.418 28.3916 190.362 27.3652 191.702 27.3652C192.431 27.3652 193.06 27.5473 193.473 27.9612L192.944 28.8551C192.613 28.5241 192.249 28.4247 191.851 28.4247C191.222 28.4247 190.626 28.9048 190.626 29.6829C190.626 30.4609 191.239 30.9576 191.901 30.9576C192.381 30.9576 192.762 30.7258 193.043 30.4113L193.573 31.239Z" fill="white"/>
        <path d="M194.201 24.9974H195.326V27.8614C195.608 27.58 196.088 27.3813 196.584 27.3813C197.66 27.3813 198.405 27.9276 198.405 29.3182V31.8841H197.279V29.4672C197.279 28.805 196.915 28.4408 196.303 28.4408C195.939 28.4408 195.591 28.5898 195.326 28.8381V31.8841H194.201V24.9974Z" fill="white"/>
        <path d="M140.524 0.000488281H138.935V32.0005H140.524V0.000488281Z" fill="white"/>
    </g>
    <defs>
        <clipPath id="clip0_767_1936">
            <rect width="240" height="32" fill="white"/>
        </clipPath>
    </defs>
</svg>
